<?xml version="1.0" standalone="no"?>
<!DOCTYPE svg PUBLIC "-//W3C//DTD SVG 20010904//EN"
 "http://www.w3.org/TR/2001/REC-SVG-20010904/DTD/svg10.dtd">
<svg version="1.0" xmlns="http://www.w3.org/2000/svg"
 width="2000.000000pt" height="2000.000000pt" viewBox="0 0 2000.000000 2000.000000"
 preserveAspectRatio="xMidYMid meet">

<g transform="translate(0.000000,2000.000000) scale(0.100000,-0.100000)"
fill="#000000" stroke="none">
<path d="M10292 16748 c-7 -7 -12 -44 -12 -90 l0 -77 -82 -3 c-70 -3 -83 -6
-86 -20 -3 -16 6 -18 82 -18 l85 0 3 -87 c2 -70 6 -88 18 -88 12 0 16 18 18
87 l3 87 87 3 c69 2 87 6 87 18 0 12 -18 16 -87 18 l-88 3 0 84 c0 84 -7 104
-28 83z"/>
<path d="M14783 15561 c-72 -25 -136 -80 -169 -146 -29 -61 -27 -80 5 -44 12
13 43 48 69 78 56 64 112 91 187 91 30 0 66 5 82 11 26 10 27 12 8 19 -35 15
-128 10 -182 -9z"/>
<path d="M7345 15530 c-208 -6 -245 -18 -314 -97 -81 -91 -74 136 -79 -2404
l-4 -2267 -37 4 c-20 3 -128 13 -241 24 l-205 20 -28 35 c-21 25 -37 35 -58
35 -24 0 -29 4 -29 26 0 14 13 45 29 68 32 45 71 150 71 188 0 15 11 29 31 40
39 23 70 93 76 172 7 83 -7 116 -48 116 -28 0 -31 3 -25 23 22 75 17 241 -9
308 -4 12 8 25 45 49 149 96 170 199 55 270 l-35 22 20 25 c47 60 12 117 -104
173 -123 58 -288 77 -409 45 -96 -25 -207 -85 -271 -147 -48 -46 -66 -57 -104
-63 -175 -26 -267 -214 -218 -447 17 -78 64 -200 100 -257 30 -47 31 -51 11
-51 -62 0 -24 -205 48 -266 26 -22 37 -25 69 -20 24 4 38 2 38 -4 0 -19 59
-131 89 -169 18 -22 32 -55 36 -84 l7 -47 -35 0 c-31 0 -40 -6 -66 -44 -17
-24 -41 -46 -53 -49 -13 -3 -174 -35 -358 -72 -184 -36 -344 -69 -355 -74 -11
-5 -270 -311 -575 -680 -392 -474 -555 -679 -555 -696 0 -15 34 -64 100 -142
56 -65 221 -261 369 -435 147 -175 274 -318 282 -318 9 0 24 4 34 10 27 14 40
-33 40 -148 l0 -95 86 -83 c55 -54 101 -89 130 -100 l45 -17 39 32 c22 18 40
29 40 25 0 -4 -38 -130 -85 -280 -47 -151 -85 -280 -85 -289 0 -10 53 -41 155
-90 137 -65 155 -76 155 -98 0 -13 -34 -327 -75 -698 -188 -1681 -225 -2014
-239 -2154 -18 -181 -61 -559 -76 -670 l-12 -80 -69 -63 c-90 -83 -222 -241
-254 -305 -42 -86 -32 -147 29 -167 85 -28 312 57 454 170 64 50 101 125 141
281 43 171 150 530 207 699 25 73 191 598 440 1395 69 220 172 549 229 730 57
182 129 411 160 510 31 98 57 181 59 183 2 1 6 -7 9 -20 10 -41 389 -1726 536
-2388 61 -272 120 -531 132 -575 12 -44 27 -114 35 -155 7 -41 38 -183 68
-315 52 -232 55 -241 88 -268 68 -58 227 -158 333 -209 109 -53 111 -53 205
-53 117 0 150 15 150 69 0 40 -51 121 -135 213 l-57 63 3099 2 3098 3 41 22
c63 34 97 66 129 125 l30 53 3 1717 2 1718 23 4 c138 26 288 57 300 62 19 7
193 -204 300 -364 170 -255 301 -525 406 -839 53 -156 141 -482 141 -520 0
-10 -29 -13 -130 -13 -71 0 -130 -3 -130 -7 0 -5 9 -125 21 -268 36 -459 38
-497 49 -655 6 -85 15 -209 20 -275 6 -66 15 -219 21 -340 6 -121 14 -223 17
-227 4 -4 138 -8 297 -8 l290 -1 6 63 c4 35 7 114 8 177 1 63 4 117 6 121 2 4
9 72 15 151 5 79 19 270 30 424 11 154 26 375 34 490 9 116 18 243 21 283 l5
72 -150 0 c-173 0 -161 -11 -129 113 145 578 392 1162 684 1617 l43 67 87 -18
c711 -144 1240 135 1427 751 104 342 111 620 29 1025 -26 126 -42 187 -73 275
l-33 95 -65 8 c-71 9 -253 2 -395 -14 -205 -24 -451 -90 -614 -165 -41 -19
-75 -34 -76 -34 -2 0 22 37 53 83 103 153 181 343 218 533 27 132 24 381 -5
546 -84 480 -303 902 -689 1327 -153 168 -402 381 -610 521 -110 73 -94 75
-242 -28 -387 -270 -730 -629 -949 -994 -79 -133 -176 -340 -218 -468 l-38
-115 -5 2415 -5 2415 -21 45 c-24 52 -98 124 -152 148 -34 16 -260 17 -3127
18 -1699 0 -3171 -2 -3270 -6z m6180 -57 c47 -25 95 -74 121 -123 18 -34 19
-201 22 -5865 2 -5179 0 -5835 -13 -5875 -21 -63 -65 -113 -127 -144 l-52 -26
-3012 0 -3011 0 -109 52 c-60 28 -110 52 -111 52 -2 2 -43 1504 -58 2111 -3
127 -12 466 -20 755 -8 289 -15 575 -15 635 l1 110 117 72 117 71 5 -1406 5
-1407 2947 -3 2948 -2 2 5151 c2 2833 -1 5157 -5 5165 -7 12 -108 14 -677 14
l-669 0 -91 -79 c-157 -136 23 -122 -1483 -119 -1223 3 -1304 4 -1337 21 -19
9 -78 53 -130 97 l-95 80 -705 -3 -705 -2 -5 -2113 -5 -2113 -37 74 -37 75
-48 6 c-26 3 -79 8 -118 11 -38 3 -87 8 -108 11 l-37 6 2 2271 c3 2164 4 2274
21 2312 31 68 94 124 167 146 14 4 1438 7 3165 6 l3140 -2 40 -22z m-4665
-774 c47 -39 112 -84 145 -100 l60 -29 1297 0 c1507 0 1343 -13 1495 120 l91
80 646 0 646 0 0 -510 0 -510 -2910 0 -2910 0 0 510 0 510 678 0 677 0 85 -71z
m1700 -2713 c623 -83 1143 -455 1415 -1011 75 -153 118 -276 150 -429 136
-641 -76 -1297 -563 -1739 -356 -325 -821 -494 -1302 -474 -283 12 -520 75
-770 203 -425 219 -752 601 -900 1052 -70 215 -85 314 -85 577 0 264 15 366
86 579 64 191 208 466 244 466 27 0 20 -26 -29 -105 -136 -219 -225 -481 -257
-755 -14 -128 -7 -358 16 -490 48 -271 166 -544 334 -770 79 -107 280 -304
389 -380 479 -337 1066 -425 1611 -243 446 148 822 476 1036 902 135 270 193
546 182 866 -9 271 -63 481 -187 730 -86 173 -174 297 -308 436 -329 342 -722
521 -1212 554 -86 5 -211 -2 -372 -21 -49 -6 -58 -4 -58 9 0 24 15 29 114 43
125 16 340 16 466 0z m-4732 -91 c91 -60 223 -86 410 -80 67 3 122 3 122 0 0
-2 10 -84 21 -182 14 -111 22 -244 23 -353 1 -174 1 -175 -28 -235 -32 -65
-103 -142 -157 -171 -24 -13 -56 -19 -104 -19 -61 0 -78 5 -133 34 -79 43
-161 130 -201 215 -31 66 -93 258 -106 329 -6 31 -4 42 13 60 53 58 74 139 88
330 4 53 8 97 11 97 2 0 21 -11 41 -25z m4661 -200 c469 -35 942 -344 1184
-773 212 -378 255 -844 115 -1257 -85 -253 -268 -518 -473 -685 -485 -396
-1132 -466 -1687 -183 -268 137 -490 350 -644 620 -205 360 -248 832 -113
1238 195 584 728 1000 1339 1044 103 8 128 7 279 -4z m4801 -737 l5 -614 320
405 c176 222 326 406 333 409 6 2 12 -3 12 -11 0 -7 -151 -205 -335 -438
l-335 -424 0 -439 c0 -257 4 -436 9 -430 5 5 147 185 315 399 169 215 316 396
327 404 59 42 -12 -58 -316 -441 l-334 -423 -1 -374 0 -374 114 144 c62 79
208 263 322 408 197 249 244 301 232 255 -3 -11 -149 -202 -326 -426 -176
-223 -328 -417 -337 -431 -35 -54 -49 -39 -367 403 -164 227 -297 418 -295
423 1 4 7 9 12 10 6 1 140 -179 298 -398 158 -220 294 -407 302 -415 13 -12
15 31 15 351 l0 365 -315 437 c-173 241 -315 442 -315 447 0 38 60 -38 321
-400 161 -225 297 -410 302 -410 4 0 7 194 7 430 l0 430 -132 183 c-328 454
-490 681 -495 693 -3 8 1 14 10 14 15 0 47 -43 406 -542 106 -147 196 -270
202 -273 5 -4 9 233 9 635 0 509 3 641 13 638 9 -4 13 -140 17 -620z m-6130
580 c0 -17 -171 -188 -187 -188 -31 0 -7 41 69 117 76 76 118 102 118 71z
m-2640 -135 c0 -65 -16 -117 -45 -150 l-24 -28 -1 60 c0 70 12 120 36 146 26
29 34 23 34 -28z m-867 -102 c51 -98 52 -119 3 -107 -33 8 -72 83 -82 156 -6
47 -5 52 12 49 12 -3 36 -37 67 -98z m2398 -83 c38 -40 49 -78 36 -131 -8 -39
-14 -47 -32 -47 -13 0 -28 -7 -35 -15 -14 -17 -16 -101 -1 -118 7 -9 4 -16
-10 -26 -18 -11 -20 -19 -15 -69 4 -31 6 -76 6 -98 0 -26 7 -50 19 -65 13 -16
17 -34 14 -63 -6 -54 11 -74 70 -85 26 -5 51 -12 54 -15 4 -4 -9 -22 -28 -41
l-34 -34 -72 42 c-61 35 -73 46 -73 69 0 14 -12 70 -26 125 -15 54 -27 123
-27 153 -1 48 4 64 43 130 45 73 45 75 48 180 5 130 18 154 63 108z m237 -261
c4 -52 -24 -63 -136 -50 -94 12 -118 27 -108 67 l7 27 117 -3 117 -3 3 -38z
m-2367 -77 c115 -83 278 -84 370 -4 15 13 17 9 22 -39 5 -53 3 -59 -89 -241
-52 -102 -98 -186 -102 -186 -4 1 -52 71 -107 157 -95 149 -101 160 -116 245
-9 48 -14 88 -12 88 3 0 18 -9 34 -20z m2307 -30 c41 0 42 -1 42 -33 0 -48
-15 -57 -95 -57 -130 0 -188 36 -138 86 14 14 29 15 82 10 37 -3 85 -6 109 -6z
m-1773 -97 c37 -49 63 -93 61 -102 -3 -9 -26 -97 -52 -196 -26 -99 -50 -183
-54 -187 -6 -8 -226 85 -243 101 -5 5 35 94 87 200 74 146 96 200 96 231 0 67
29 54 105 -47z m-586 1 c11 -45 39 -96 123 -223 60 -90 108 -164 106 -166 -2
-1 -49 -37 -106 -79 -57 -43 -105 -76 -107 -74 -1 1 -34 82 -73 178 -39 96
-79 196 -90 221 l-20 47 54 81 c44 66 58 80 77 78 18 -3 25 -15 36 -63z m1243
-45 c75 -7 142 -15 148 -19 9 -6 -2 -629 -34 -1845 l-4 -160 239 -562 c131
-309 239 -566 239 -570 0 -9 -739 -467 -745 -462 -5 6 -30 197 -145 1114 -55
440 -143 1139 -195 1553 l-95 752 21 82 20 82 -30 43 c-17 24 -31 45 -31 46 0
2 107 -7 238 -20 130 -12 299 -27 374 -34z m1126 -22 c-3 -32 -3 -32 -65 -35
-85 -4 -127 8 -131 37 -2 13 1 26 6 30 6 3 51 5 102 3 l91 -3 -3 -32z m-2564
-2 c-16 -25 -15 -30 39 -158 l55 -133 -18 -775 c-11 -425 -29 -1183 -41 -1684
-11 -500 -22 -911 -23 -912 -1 -2 -63 27 -137 63 -74 36 -251 122 -394 191
-143 69 -261 126 -262 127 -2 2 167 554 182 593 3 10 10 10 30 1 25 -11 29 -9
60 28 70 82 70 84 24 149 l-41 57 21 71 c12 40 36 118 54 175 l33 103 -67 537
c-119 941 -180 1454 -176 1458 5 6 624 131 655 133 22 1 22 0 6 -24z m1846
-510 c104 -222 175 -361 184 -363 9 -2 19 6 24 20 102 290 188 518 194 516 4
-2 42 -35 86 -75 l79 -71 -103 -530 c-56 -291 -109 -543 -118 -560 -43 -83
-162 -101 -227 -35 -15 15 -100 129 -189 253 l-160 225 5 435 c3 239 8 478 12
530 l5 95 20 -40 c10 -22 95 -202 188 -400z m708 387 c-3 -23 -8 -27 -38 -30
-56 -5 -114 11 -118 32 -6 27 8 31 88 28 71 -4 71 -4 68 -30z m-3209 -438 c37
-311 46 -412 38 -421 -7 -6 -126 -94 -266 -196 -140 -101 -259 -190 -264 -198
-6 -10 44 -121 172 -383 100 -203 180 -370 179 -371 -13 -9 -165 -109 -210
-138 l-57 -36 -273 322 c-362 429 -421 499 -437 519 -11 15 -7 25 36 75 27 32
103 123 169 203 161 194 459 556 679 822 98 120 180 216 182 214 2 -1 25 -187
52 -412z m3016 276 l83 -50 -12 -39 c-6 -22 -14 -42 -17 -46 -4 -3 -43 28 -87
70 -61 57 -79 80 -75 95 3 11 10 20 15 20 6 0 47 -23 93 -50z m-1299 -1967
c-3 -3 -105 -8 -227 -11 -215 -5 -222 -4 -215 14 49 125 94 264 91 279 -3 11
-48 330 -100 708 l-96 689 47 79 c25 43 47 79 49 79 1 0 33 -14 71 -31 81 -37
83 -36 109 74 10 40 20 76 23 82 4 5 62 -433 130 -974 68 -541 121 -986 118
-988z m-900 1796 c10 -27 25 -55 32 -62 15 -12 14 -12 86 40 l44 33 39 -63 39
-62 -7 -95 c-4 -52 -10 -135 -13 -185 -8 -126 -63 -912 -76 -1074 l-10 -133
85 -101 c47 -55 85 -104 85 -108 0 -6 -364 -18 -378 -13 -6 3 43 1874 49 1874
4 0 15 -23 25 -51z m-751 -601 c12 -74 125 -999 125 -1029 0 -37 -87 -319 -98
-319 -4 1 -37 40 -73 88 -53 70 -105 169 -268 502 -129 264 -200 419 -194 427
9 14 484 362 495 362 4 1 10 -14 13 -31z m2249 -206 l46 -67 -2 -464 -3 -465
-58 135 -58 134 6 185 c3 102 8 253 10 335 3 83 5 178 5 213 0 34 2 62 4 62 2
0 25 -30 50 -68z m6622 -19 c-12 -13 -36 21 -36 51 l1 31 20 -38 c11 -22 18
-41 15 -44z m2839 -769 c-4 -213 -4 -344 2 -341 5 3 121 159 258 346 137 188
253 341 257 341 4 0 8 -4 8 -8 0 -4 -110 -158 -245 -342 -134 -184 -243 -335
-242 -336 1 -1 154 40 340 93 300 84 366 99 344 77 -3 -3 -164 -50 -358 -105
-193 -54 -355 -102 -359 -106 -24 -26 -340 -466 -338 -469 2 -1 156 40 342 92
303 85 364 99 343 78 -5 -5 -463 -136 -678 -194 -33 -9 -54 -33 -183 -209 -80
-110 -146 -201 -146 -204 0 -2 153 39 340 91 290 82 371 100 349 78 -2 -2
-161 -48 -354 -101 -307 -85 -353 -101 -377 -126 -17 -17 -30 -24 -34 -18 -3
6 -1 16 5 22 8 8 11 121 11 374 0 232 4 363 10 363 6 0 11 -127 12 -345 l3
-345 148 201 147 202 0 363 c0 233 4 364 10 364 6 0 11 -127 12 -346 l3 -346
173 236 172 235 0 359 c0 197 3 362 7 365 23 24 25 -13 18 -339z m-2064 -55
c99 -60 265 -144 364 -184 39 -16 76 -33 83 -38 9 -7 12 -293 12 -1368 0 -748
-4 -1359 -8 -1359 -4 0 -16 33 -26 73 -31 123 -132 416 -186 542 -149 344
-349 668 -544 882 -31 33 -56 64 -56 67 0 3 18 35 40 71 135 221 238 494 281
745 29 166 11 446 -36 579 -8 23 -13 41 -11 41 1 0 41 -23 87 -51z m1078 -41
c-41 -75 -86 -219 -100 -324 -35 -263 59 -624 240 -917 l41 -68 -43 -67 c-141
-219 -331 -595 -445 -883 -68 -171 -162 -446 -162 -475 0 -8 -5 -14 -10 -14
-7 0 -9 427 -8 1276 l3 1276 120 52 c117 50 351 168 370 187 23 23 21 5 -6
-43z m-10895 -58 c6 -23 -2 -29 -97 -82 -57 -32 -106 -58 -109 -58 -3 0 -8 9
-11 20 -4 17 12 33 96 89 56 38 105 66 109 62 4 -3 9 -17 12 -31z m149 -206
c59 -76 110 -144 113 -151 3 -7 -9 -30 -26 -52 -27 -33 -36 -38 -51 -31 -32
18 -50 11 -109 -41 l-58 -50 -31 16 c-17 8 -65 48 -106 87 l-75 72 0 86 0 86
108 62 c59 34 112 60 117 58 6 -1 58 -65 118 -142z m1148 71 c30 -29 31 -29
45 -11 8 11 14 26 14 33 0 10 13 13 47 11 39 -2 50 -8 62 -30 14 -24 14 -30
-1 -62 -26 -53 -85 -80 -173 -80 -47 -1 -82 5 -107 17 -45 23 -73 74 -59 110
13 34 31 42 90 42 42 -1 56 -6 82 -30z m8030 -437 c1 -361 8 -648 16 -662 4
-6 13 -21 21 -33 13 -20 12 -23 -1 -23 -8 0 -29 19 -46 42 -30 40 -38 44 -129
69 -53 15 -116 32 -139 38 -27 7 -43 18 -43 27 0 11 6 13 23 8 56 -18 222 -62
224 -60 1 1 -54 80 -123 174 -73 100 -124 179 -122 190 3 17 43 -34 213 -270
39 -53 74 -97 78 -97 4 -1 5 183 1 408 -4 225 -4 416 -1 425 4 9 11 16 17 16
6 0 10 -86 11 -252z m-2058 -1183 c4 -8 2 -17 -2 -20 -11 -6 -3692 -7 -3699
-1 -2 3 -2 12 1 21 6 13 198 15 1851 15 1612 0 1845 -2 1849 -15z m-5 -477
c39 -39 65 -38 -1849 -38 -1270 0 -1840 3 -1844 10 -4 6 -4 17 -1 25 5 13 246
15 1844 15 1395 0 1841 -3 1850 -12z m0 -495 c-3 -17 -99 -18 -1848 -18 -1749
0 -1845 1 -1848 18 -3 16 90 17 1848 17 1758 0 1851 -1 1848 -17z"/>
<path d="M10365 4330 c-85 -13 -129 -63 -130 -146 -1 -159 216 -212 285 -69
24 50 25 86 4 130 -29 63 -91 96 -159 85z"/>
<path d="M6145 11687 c-30 -23 -11 -32 54 -29 50 3 62 0 88 -22 17 -14 36 -26
43 -26 21 0 6 42 -22 63 -36 27 -134 35 -163 14z"/>
<path d="M5854 11656 c-36 -16 -74 -61 -74 -87 0 -27 29 -23 40 6 10 27 57 55
93 55 25 0 52 22 40 33 -11 11 -66 7 -99 -7z"/>
<path d="M6090 11528 c1 -18 5 -64 10 -103 7 -57 14 -74 36 -93 l26 -23 -23
-25 c-16 -17 -33 -24 -61 -24 -32 0 -39 -3 -36 -17 2 -13 15 -19 46 -21 38 -3
47 1 77 31 42 42 44 66 7 99 -25 22 -30 36 -36 94 -9 92 -16 114 -32 114 -9 0
-14 -11 -14 -32z"/>
<path d="M6220 11515 c-13 -33 3 -75 29 -75 20 0 31 18 31 54 0 46 -44 62 -60
21z"/>
<path d="M5820 11478 c-14 -8 -26 -22 -28 -32 -4 -16 0 -18 25 -10 15 5 55 9
88 9 59 0 70 5 63 27 -6 17 -118 21 -148 6z"/>
<path d="M6156 11118 c-12 -6 -44 -8 -83 -5 -57 6 -64 4 -61 -10 9 -48 178
-40 178 9 0 21 -7 22 -34 6z"/>
<path d="M11100 11115 c-15 -7 -212 -278 -464 -634 -241 -342 -441 -621 -445
-620 -3 0 -42 42 -86 93 -272 314 -419 475 -438 480 -38 10 -77 7 -107 -9 -52
-27 -75 -101 -47 -152 7 -12 149 -178 316 -368 335 -380 339 -384 417 -354 32
12 59 46 189 229 83 118 299 424 480 680 181 256 337 479 347 495 62 102 -56
218 -162 160z"/>
<path d="M15327 14004 c-4 -4 -7 -45 -7 -91 l0 -83 -83 0 c-88 0 -104 -5 -86
-27 8 -9 37 -13 90 -13 l79 0 0 -85 c0 -78 2 -85 20 -85 18 0 20 7 20 85 l0
84 88 3 c69 2 87 6 87 18 0 12 -18 16 -87 18 l-87 3 -3 86 c-3 79 -12 106 -31
87z"/>
<path d="M6223 13295 c-31 -21 -40 -78 -19 -110 49 -74 156 -44 156 43 0 70
-79 108 -137 67z m87 -35 c24 -24 24 -29 4 -58 -18 -26 -41 -28 -66 -5 -24 22
-23 49 4 67 29 20 34 20 58 -4z"/>
<path d="M16385 12325 c-67 -67 18 -175 103 -131 33 17 42 34 42 80 0 70 -93
103 -145 51z m95 -25 c11 -11 20 -24 20 -30 0 -14 -37 -50 -52 -50 -18 0 -48
31 -48 51 0 17 35 49 52 49 5 0 17 -9 28 -20z"/>
<path d="M3225 10958 c-2 -7 -6 -47 -7 -88 l-3 -75 -80 -3 c-44 -2 -84 -7 -90
-13 -19 -19 19 -29 95 -28 l75 2 3 -87 c2 -76 5 -87 20 -84 14 3 17 17 20 85
l3 82 82 3 c69 3 82 6 85 21 3 15 -6 17 -82 17 l-85 0 -3 87 c-2 58 -7 88 -15
91 -7 2 -15 -2 -18 -10z"/>
<path d="M2498 8803 c12 -2 32 -2 45 0 12 2 2 4 -23 4 -25 0 -35 -2 -22 -4z"/>
<path d="M2823 8500 c0 -30 2 -43 4 -27 2 15 2 39 0 55 -2 15 -4 2 -4 -28z"/>
<path d="M2483 8193 c20 -2 54 -2 75 0 20 2 3 4 -38 4 -41 0 -58 -2 -37 -4z"/>
<path d="M4446 6985 c-3 -9 -6 -50 -6 -91 l0 -74 -86 0 c-76 0 -85 -2 -82 -17
3 -15 16 -18 86 -21 l82 -3 0 -78 c0 -54 4 -82 13 -90 22 -18 27 -2 27 85 l0
83 88 3 c69 2 87 6 87 18 0 12 -18 16 -87 18 l-87 3 -3 86 c-3 82 -17 117 -32
78z"/>
</g>
</svg>
